<svg xmlns="http://www.w3.org/2000/svg" xmlns:xlink="http://www.w3.org/1999/xlink" height="30.00000023841858" width="30">
  <defs>
    <path id="path-1" opacity="1" fill-rule="evenodd" d="M25.454357028007507 17.105262517929077L28.255969882011414 19.811416387557983C28.98554027080536 20.514957189559937 29.200210452079773 21.565017461776733 28.80353534221649 22.48606848716736C28.408416628837585 23.405622243881226 27.48750865459442 23.999656438827515 26.454599261283875 23.999656438827515L21.22315776348114 23.999656438827515L21.22315776348114 24.511184453964233C21.22315776348114 27.538358449935913 18.43243396282196 29.999997854232788 15.000808596611023 29.999997854232788C11.569182276725769 29.999997854232788 8.77845847606659 27.538358449935913 8.77845847606659 24.511184453964233L8.77845847606659 23.999656438827515L3.5470179319381714 23.999656438827515C2.514108180999756 23.999656438827515 1.5916447639465332 23.405622243881226 1.1949700117111206 22.484569311141968C0.7998507618904114 21.565017461776733 1.0160773992538452 20.516456365585327 1.74564790725708 19.811416387557983L4.547260642051697 17.105262517929077L4.548816561698914 10.08936095237732C4.548816561698914 7.1881959438323975 5.852398753166199 4.422037839889526 8.129778742790222 2.4989280700683594C10.393158793449402 0.5848186612129211 13.410998225212097 -0.2957316040992737 16.40083682537079 0.08829034119844437C21.56227672100067 0.7468279004096985 25.454357028007507 5.182581663131714 25.454357028007507 10.404379606246948L25.454357028007507 17.105262517929077ZM4.912824034690857 20.99948477745056L6.748417258262634 19.226382970809937C7.336429476737976 18.659351110458374 7.659991145133972 17.906306982040405 7.659991145133972 17.105262517929077L7.659991145133972 10.08936095237732C7.659991145133972 8.053745031356812 8.577788233757019 6.108134031295776 10.18004310131073 4.755057096481323C11.794742465019226 3.3899788856506348 13.851228594779968 2.789944648742676 15.99327266216278 3.061460256576538C19.61312472820282 3.524986743927002 22.343181490898132 6.681166410446167 22.343181490898132 10.404379606246948L22.343181490898132 17.105262517929077C22.343181490898132 17.906306982040405 22.666744112968445 18.659351110458374 23.25320041179657 19.224881887435913L25.090349078178406 20.99948477745056L4.912824034690857 20.99948477745056ZM18.111982226371765 24.511186361312866C18.111982226371765 25.859761953353882 16.68706500530243 26.999828100204468 15.000807642936707 26.999828100204468C13.3145512342453 26.999828100204468 11.889633059501648 25.859761953353882 11.889633059501648 24.511186361312866L11.889633059501648 23.999656438827515L18.111982226371765 23.999656438827515L18.111982226371765 24.511186361312866Z"/>
    <mask id="mask-2" maskUnits="userSpaceOnUse" maskContentUnits="userSpaceOnUse">
      <rect opacity="1" x="0" y="0" width="30" height="30.00000023841858" fill="Black"/>
      <use xlink:href="#path-1" fill="White"/>
    </mask>
  </defs>
  <g transform="translate(0, 2.384185791015625e-7)" opacity="1">
    <g opacity="1">
      <use xlink:href="#path-1" fill="rgb(255,255,255)" fill-opacity="1"/>
    </g>
    <g mask="url(#mask-2)"/>
  </g>
</svg>