<svg xmlns="http://www.w3.org/2000/svg" xmlns:xlink="http://www.w3.org/1999/xlink" height="24" width="24">
  <defs>
    <path id="path-1" opacity="1" fill-rule="evenodd" d="M4 5C4 4.449999809265137 4.449999809265137 4 5 4L19 4C19.549999237060547 4 20 4.449999809265137 20 5L20 7C20 7.550000190734863 19.549999237060547 8 19 8C18.450000762939453 8 18 7.550000190734863 18 7L18 6L6 6L6 7C6 7.550000190734863 5.550000190734863 8 5 8C4.449999809265137 8 4 7.550000190734863 4 7L4 5ZM8.00100040435791 14C7.696000099182129 14 7.397000312805176 13.86199951171875 7.200000286102295 13.59999942779541C6.868000030517578 13.157999038696289 6.958000183105469 12.531000137329102 7.400000095367432 12.199999809265137L11.399999618530273 9.199999809265137C11.746000289916992 8.9399995803833 12.222000122070312 8.932999610900879 12.575000762939453 9.181999206542969L16.575000762939453 11.995999336242676C17.027000427246094 12.31399917602539 17.136001586914062 12.937999725341797 16.81800079345703 13.388999938964844C16.5 13.84000015258789 15.876999855041504 13.949999809265137 15.425000190734863 13.631999969482422L12.997164726257324 11.924103736877441C12.999043464660645 11.949156761169434 13 11.974467277526855 13 12L13 20C13 20.552000045776367 12.552999496459961 21 12 21C11.446999549865723 21 11 20.552000045776367 11 20L11 12.000175476074219L8.600000381469727 13.799999237060547C8.420000076293945 13.934999465942383 8.210000038146973 14 8.00100040435791 14Z"/>
    <mask id="mask-2" maskUnits="userSpaceOnUse" maskContentUnits="userSpaceOnUse">
      <rect opacity="1" x="0" y="0" width="24" height="24" fill="Black"/>
      <use xlink:href="#path-1" fill="White"/>
    </mask>
  </defs>
  <g opacity="1">
    <g opacity="1">
      <use xlink:href="#path-1" fill="rgb(255,255,255)" fill-opacity="1"/>
    </g>
    <g mask="url(#mask-2)"/>
  </g>
</svg>