<svg xmlns="http://www.w3.org/2000/svg" xmlns:xlink="http://www.w3.org/1999/xlink" height="143.00000027077976" width="137">
  <defs>
    <ellipse id="ellipse-1" opacity="1" rx="64.5" ry="64.98717948717963" cx="68.5" cy="72.01282078360022"/>
    <filter id="filter-2" filterUnits="userSpaceOnUse" x="-50%" y="-50%" width="200%" height="200%">
      <feOffset in="SourceAlpha" result="shadow-1-feOffset-shadow" dx="0" dy="2"/>
      <feGaussianBlur in="shadow-1-feOffset-shadow" result="shadow-1-feGaussianBlur-shadow" stdDeviation="2"/>
      <feColorMatrix in="shadow-1-feGaussianBlur-shadow" result="shadow-1-feColorMatrix-shadow" type="matrix" values="0 0 0 0 0  0 0 0 0 0  0 0 0 0 0  0 0 0 0.5 0"/>
    </filter>
  </defs>
  <g opacity="1">
    <g opacity="1">
      <use xlink:href="#ellipse-1" fill="black" filter="url(#filter-2)" stroke="black" stroke-opacity="0" stroke-width="0"/>
      <use xlink:href="#ellipse-1" fill="rgb(200,200,200)" fill-opacity="1"/>
    </g>
    <g transform="translate(4, 2.7077976483269595e-7)" opacity="1">
      <g transform="translate(-2.614864911265613e-7, -2.707799211520978e-7)" opacity="1">
        <g opacity="1">
          <g opacity="1">
            <path fill="rgb(255,255,255)" fill-opacity="1" opacity="1" fill-rule="evenodd" d="M75.8327549105646 86.65130600207293C71.91045759692439 84.48333368534739 74.00402301105298 80.42163495047492 75.8327549105646 78.52790853232798C78.18613329874871 76.09088929140451 81.06415817560537 67.69844489746161 81.06415817560537 67.69844489746161C85.77091495197361 65.53047258073607 86.29556144064614 62.012066668640145 86.81518738875718 59.57504742771667C88.90875280288579 52.53303662914418 83.677349537845 51.451649957971725 83.677349537845 51.451649957971725C83.677349537845 51.451649957971725 87.85945982554074 39.80984657613085 84.46180900057306 30.874109359411417C80.01486519826032 19.232305977570544 61.972297555515354 14.896361344119486 58.83445970460318 25.731023953366496C37.3942412368905 20.85191647149841 41.836164498641764 51.44645098359109 41.836164498641764 51.44645098359109C41.836164498641764 51.44645098359109 36.604761233600996 52.527876647071395 38.6983266477296 59.569848453336036C39.22293548234791 62.00686769425951 39.742636738567384 65.52527360635546 44.449355860881425 67.69324592308098C44.449355860881425 67.69324592308098 47.32738073773807 76.08569031702388 49.680759125922194 78.52270955794737C51.5094910254338 80.41643597609429 53.60305643956241 84.47813471096676 49.680759125922194 86.6461070276923C41.836164498641764 90.97685268676273 18.302380616800495 92.06343833231583 18.302380616800495 111.01629943692713L107.20611287912482 111.01629943692713C107.21101669211822 92.06343833231583 83.677349537845 90.98205166114336 75.8327549105646 86.65130600207293Z"/>
          </g>
        </g>
      </g>
    </g>
  </g>
</svg>