<svg xmlns="http://www.w3.org/2000/svg" xmlns:xlink="http://www.w3.org/1999/xlink" height="34" width="35.0000010096951">
  <defs>
    <path id="path-1" opacity="1" fill-rule="evenodd" d="M17.595844268798828 4.186264514923096C22.439130783081055 3.4377336502075195 27.17892074584961 4.966297149658203 30.60626983642578 8.392438888549805C34.03361892700195 11.820080757141113 35.56504821777344 16.563278198242188 34.81208419799805 21.403976440429688C33.858123779296875 27.519729614257812 28.932344436645508 32.589942932128906 22.830612182617188 33.73448944091797C19.896743774414062 34.285011291503906 16.905874252319336 33.96849822998047 14.183494567871094 32.81794738769531C13.945005416870117 32.71894836425781 13.588021278381348 32.615440368652344 13.219037055969238 32.685943603515625L6.794820785522461 33.97149658203125C6.695825576782227 33.990997314453125 6.598329544067383 34 6.500833988189697 34C6.106351375579834 34 5.723868370056152 33.845489501953125 5.440381050109863 33.56047821044922C5.084896564483643 33.20646667480469 4.930403232574463 32.69794464111328 5.0293989181518555 32.20592498779297L6.316342353820801 25.773658752441406C6.373339653015137 25.484146118164062 6.328341484069824 25.161632537841797 6.18284797668457 24.81511878967285C5.032398700714111 22.09550666809082 4.714412689208984 19.104381561279297 5.266388416290283 16.167259216308594C6.4108381271362305 10.066507339477539 11.480613708496094 5.140304088592529 17.595844268798828 4.186264514923096ZM31.84671401977539 20.941957473754883C31.08625030517578 25.82316017150879 27.15192413330078 29.871828079223633 22.278636932373047 30.78536605834961C19.925241470336914 31.22938346862793 17.52834701538086 30.975873947143555 15.353443145751953 30.054834365844727C14.736970901489258 29.7938232421875 14.099498748779297 29.661819458007812 13.47402572631836 29.661819458007812C13.18903923034668 29.661819458007812 12.907051086425781 29.688819885253906 12.629563331604004 29.744321823120117L8.411749839782715 30.587356567382812L9.25621223449707 26.361682891845703C9.433204650878906 25.484146118164062 9.325209617614746 24.545106887817383 8.94572639465332 23.646570205688477C8.02476692199707 21.471479415893555 7.772778034210205 19.07588005065918 8.215258598327637 16.720783233642578C9.128718376159668 11.847082138061523 13.175539016723633 7.912418842315674 18.057823181152344 7.1518874168396C21.94265365600586 6.547362327575684 25.741985321044922 7.7714128494262695 28.483863830566406 10.513526916503906C31.22724151611328 13.257140159606934 32.45268630981445 17.058298110961914 31.84671401977539 20.941957473754883ZM12.499969482421875 18.999528884887695C12.499969482421875 18.171493530273438 13.171939849853516 17.499465942382812 13.999902725219727 17.499465942382812C14.827866554260254 17.499465942382812 15.499836921691895 18.171493530273438 15.499836921691895 18.999528884887695C15.499836921691895 19.82756233215332 14.827866554260254 20.499589920043945 13.999902725219727 20.499589920043945C13.171939849853516 20.499589920043945 12.499969482421875 19.82756233215332 12.499969482421875 18.999528884887695ZM19.999637603759766 17.499465942382812C19.171674728393555 17.499465942382812 18.499704360961914 18.171493530273438 18.499704360961914 18.999528884887695C18.499704360961914 19.82756233215332 19.171674728393555 20.499589920043945 19.999637603759766 20.499589920043945C20.82760238647461 20.499589920043945 21.49957275390625 19.82756233215332 21.49957275390625 18.999528884887695C21.49957275390625 18.171493530273438 20.82760238647461 17.499465942382812 19.999637603759766 17.499465942382812ZM25.999372482299805 17.499465942382812C25.171409606933594 17.499465942382812 24.499439239501953 18.171493530273438 24.499439239501953 18.999528884887695C24.499439239501953 19.82756233215332 25.171409606933594 20.499589920043945 25.999372482299805 20.499589920043945C26.82733726501465 20.499589920043945 27.499305725097656 19.82756233215332 27.499305725097656 18.999528884887695C27.499305725097656 18.171493530273438 26.82733726501465 17.499465942382812 25.999372482299805 17.499465942382812Z"/>
    <mask id="mask-2" maskUnits="userSpaceOnUse" maskContentUnits="userSpaceOnUse">
      <rect opacity="1" x="0" y="0" width="35.0000010096951" height="34" fill="Black"/>
      <use xlink:href="#path-1" fill="White"/>
    </mask>
  </defs>
  <g opacity="1">
    <g opacity="1">
      <use xlink:href="#path-1" fill="rgb(255,255,255)" fill-opacity="1"/>
    </g>
    <g mask="url(#mask-2)"/>
  </g>
</svg>