<svg xmlns="http://www.w3.org/2000/svg" xmlns:xlink="http://www.w3.org/1999/xlink" height="30" width="30.00000035762787">
  <defs>
    <path id="path-1" opacity="1" fill-rule="evenodd" d="M-1.3636363744735718 15C-1.3636363744735718 6.729000091552734 5.365363717079163 0 13.636363625526428 0C21.907363533973694 0 28.636363625526428 6.729000091552734 28.636363625526428 15C28.636363625526428 23.270999908447266 21.907363533973694 30 13.636363625526428 30C5.365363717079163 30 -1.3636363744735718 23.270999908447266 -1.3636363744735718 15ZM13.636363625526428 27C7.019863724708557 27 1.6363636255264282 21.616500854492188 1.6363636255264282 15C1.6363636255264282 8.383500099182129 7.019863724708557 3 13.636363625526428 3C20.252864480018616 3 25.636363625526428 8.383500099182129 25.636363625526428 15C25.636363625526428 21.616500854492188 20.252864480018616 27 13.636363625526428 27ZM11.368363976478577 7.718400001525879C12.307363152503967 7.3059000968933105 13.397863030433655 7.485899925231934 14.144863724708557 8.178899765014648L19.606364846229553 13.232399940490723C20.10286295413971 13.689899444580078 20.386363625526428 14.33489990234375 20.386363625526428 14.999399185180664C20.386363625526428 15.665399551391602 20.10286295413971 16.30889892578125 19.606364846229553 16.767898559570312L14.14336359500885 21.822898864746094C13.664863228797913 22.26689910888672 13.04236376285553 22.499401092529297 12.40786325931549 22.499401092529297C12.058363556861877 22.499401092529297 11.702863335609436 22.42889976501465 11.368363976478577 22.281898498535156C10.45336401462555 21.88290023803711 9.886363625526428 21.029399871826172 9.886363625526428 20.05590057373047L9.886363625526428 9.9443998336792C9.886363625526428 8.97089958190918 10.45336401462555 8.117400169372559 11.368363976478577 7.718400001525879ZM12.886363625526428 11.100899696350098L12.886363625526428 18.899398803710938L17.099864602088928 14.999399185180664L12.886363625526428 11.100899696350098Z"/>
    <mask id="mask-2" maskUnits="userSpaceOnUse" maskContentUnits="userSpaceOnUse">
      <rect opacity="1" x="0" y="0" width="30.00000035762787" height="30" fill="Black"/>
      <use xlink:href="#path-1" fill="White"/>
    </mask>
  </defs>
  <g transform="translate(1.3636363744737992, 0)" opacity="1">
    <g opacity="1">
      <use xlink:href="#path-1" fill="rgb(255,255,255)" fill-opacity="1"/>
    </g>
    <g mask="url(#mask-2)"/>
  </g>
</svg>